# Exported from ProBuilder
# http://www.procore3d.com/probuilder
# 2/7/2018 6:10:11 PM

mtllib ./InfoAR.mtl
o InfoAR

g Plane
v 0 0 0
v -0.08757804 -1.346125E-16 0.2
v 1.192093E-08 0.1 0
v -0.08757803 0.1 0.2
v -0.08757804 -1.346125E-16 0.2
v -0.1544624 -1.490116E-08 0.4
v -0.08757803 0.1 0.2
v -0.1544624 0.1 0.4
v -0.1544624 -1.490116E-08 0.4
v -0.1544624 -1.490116E-08 0.6
v -0.1544624 0.1 0.4
v -0.1544624 0.1 0.6
v -0.1544624 -1.490116E-08 0.6
v -0.08757804 -1.346125E-16 0.8
v -0.1544624 0.1 0.6
v -0.08757803 0.1 0.8
v -0.08757804 -1.346125E-16 0.8
v 0 0 1
v -0.08757803 0.1 0.8
v 1.192093E-08 0.1 1
v 1.192093E-08 0.1 0
v -0.08757803 0.1 0.2
v 2.384186E-08 0.2 0
v -0.08757801 0.2 0.2
v -0.08757803 0.1 0.2
v -0.1544624 0.1 0.4
v -0.08757801 0.2 0.2
v -0.1544624 0.2 0.4
v -0.1544624 0.1 0.4
v -0.1544624 0.1 0.6
v -0.1544624 0.2 0.4
v -0.1544624 0.2 0.6
v -0.1544624 0.1 0.6
v -0.08757803 0.1 0.8
v -0.1544624 0.2 0.6
v -0.08757801 0.2 0.8
v -0.08757803 0.1 0.8
v 1.192093E-08 0.1 1
v -0.08757801 0.2 0.8
v 2.384186E-08 0.2 1
v 2.384186E-08 0.2 0
v -0.08757801 0.2 0.2
v 3.576279E-08 0.3 0
v -0.087578 0.3000001 0.2
v -0.08757801 0.2 0.2
v -0.1544624 0.2 0.4
v -0.087578 0.3000001 0.2
v -0.1544624 0.3000001 0.4
v -0.1544624 0.2 0.4
v -0.1544624 0.2 0.6
v -0.1544624 0.3000001 0.4
v -0.1544624 0.3000001 0.6
v -0.1544624 0.2 0.6
v -0.08757801 0.2 0.8
v -0.1544624 0.3000001 0.6
v -0.087578 0.3000001 0.8
v -0.08757801 0.2 0.8
v 2.384186E-08 0.2 1
v -0.087578 0.3000001 0.8
v 3.576279E-08 0.3 1
v 3.576279E-08 0.3 0
v -0.087578 0.3000001 0.2
v 4.768372E-08 0.4000001 0
v -0.08757799 0.4000001 0.2
v -0.087578 0.3000001 0.2
v -0.1544624 0.3000001 0.4
v -0.08757799 0.4000001 0.2
v -0.1544624 0.4000001 0.4
v -0.1544624 0.3000001 0.4
v -0.1544624 0.3000001 0.6
v -0.1544624 0.4000001 0.4
v -0.1544624 0.4000001 0.6
v -0.1544624 0.3000001 0.6
v -0.087578 0.3000001 0.8
v -0.1544624 0.4000001 0.6
v -0.08757799 0.4000001 0.8
v -0.087578 0.3000001 0.8
v 3.576279E-08 0.3 1
v -0.08757799 0.4000001 0.8
v 4.768372E-08 0.4000001 1
v 4.768372E-08 0.4000001 0
v -0.08757799 0.4000001 0.2
v 5.960464E-08 0.5000001 0
v -0.08757798 0.5000001 0.2
v -0.08757799 0.4000001 0.2
v -0.1544624 0.4000001 0.4
v -0.08757798 0.5000001 0.2
v -0.1544624 0.5000001 0.4
v -0.1544624 0.4000001 0.4
v -0.1544624 0.4000001 0.6
v -0.1544624 0.5000001 0.4
v -0.1544624 0.5000001 0.6
v -0.1544624 0.4000001 0.6
v -0.08757799 0.4000001 0.8
v -0.1544624 0.5000001 0.6
v -0.08757798 0.5000001 0.8
v -0.08757799 0.4000001 0.8
v 4.768372E-08 0.4000001 1
v -0.08757798 0.5000001 0.8
v 5.960464E-08 0.5000001 1

vn 0.09160262 -1.091988E-08 0.04011188
vn 0.09160262 -1.091988E-08 0.04011188
vn 0.09160262 -1.091988E-08 0.04011188
vn 0.09160262 -1.091988E-08 0.04011188
vn 0.09483734 -1.130549E-08 0.03171567
vn 0.09483734 -1.130549E-08 0.03171568
vn 0.09483733 -1.130549E-08 0.03171567
vn 0.09483734 -1.130549E-08 0.03171567
vn 0.1 -1.192093E-08 0
vn 0.1 -1.192093E-08 0
vn 0.1 -1.192093E-08 0
vn 0.1 -1.192093E-08 0
vn 0.09483733 -1.130549E-08 -0.03171568
vn 0.09483733 -1.130549E-08 -0.03171568
vn 0.09483733 -1.130549E-08 -0.03171568
vn 0.09483733 -1.130549E-08 -0.03171568
vn 0.09160262 -1.091988E-08 -0.04011187
vn 0.09160262 -1.091988E-08 -0.04011187
vn 0.09160262 -1.091988E-08 -0.04011187
vn 0.09160262 -1.091988E-08 -0.04011187
vn 0.09160262 -1.091988E-08 0.04011188
vn 0.09160262 -1.091988E-08 0.04011188
vn 0.09160262 -1.091988E-08 0.04011188
vn 0.09160262 -1.091988E-08 0.04011188
vn 0.09483733 -1.130549E-08 0.03171568
vn 0.09483732 -1.130549E-08 0.03171567
vn 0.09483733 -1.130549E-08 0.03171567
vn 0.09483733 -1.130549E-08 0.03171568
vn 0.1 -1.192093E-08 0
vn 0.1 -1.192093E-08 0
vn 0.1 -1.192093E-08 0
vn 0.1 -1.192093E-08 0
vn 0.09483733 -1.130549E-08 -0.03171568
vn 0.09483733 -1.130549E-08 -0.03171568
vn 0.09483732 -1.130549E-08 -0.03171568
vn 0.09483733 -1.130549E-08 -0.03171568
vn 0.09160262 -1.091988E-08 -0.04011187
vn 0.09160262 -1.091988E-08 -0.04011188
vn 0.09160262 -1.091988E-08 -0.04011187
vn 0.09160262 -1.091988E-08 -0.04011187
vn 0.09160262 -1.091988E-08 0.04011188
vn 0.09160262 -1.091988E-08 0.04011188
vn 0.09160262 -1.091988E-08 0.04011188
vn 0.09160262 -1.091988E-08 0.04011188
vn 0.09483734 -1.130549E-08 0.03171568
vn 0.09483734 -1.130549E-08 0.03171568
vn 0.09483733 -1.130549E-08 0.03171567
vn 0.09483734 -1.130549E-08 0.03171568
vn 0.1 -1.192093E-08 0
vn 0.1 -1.192093E-08 0
vn 0.1 -1.192093E-08 0
vn 0.1 -1.192093E-08 0
vn 0.09483734 -1.130549E-08 -0.03171568
vn 0.09483733 -1.130549E-08 -0.03171568
vn 0.09483734 -1.130549E-08 -0.03171568
vn 0.09483734 -1.130549E-08 -0.03171568
vn 0.09160262 -1.091988E-08 -0.04011187
vn 0.09160262 -1.091988E-08 -0.04011187
vn 0.09160262 -1.091988E-08 -0.04011187
vn 0.09160262 -1.091988E-08 -0.04011187
vn 0.09160262 -1.091988E-08 0.04011188
vn 0.09160262 -1.091988E-08 0.04011188
vn 0.09160262 -1.091988E-08 0.04011188
vn 0.09160262 -1.091988E-08 0.04011188
vn 0.09483733 -1.130549E-08 0.03171567
vn 0.09483733 -1.130549E-08 0.03171567
vn 0.09483733 -1.130549E-08 0.03171567
vn 0.09483733 -1.130549E-08 0.03171567
vn 0.1 -1.192093E-08 0
vn 0.1 -1.192093E-08 0
vn 0.1 -1.192093E-08 0
vn 0.1 -1.192093E-08 0
vn 0.09483733 -1.130549E-08 -0.03171568
vn 0.09483733 -1.130549E-08 -0.03171568
vn 0.09483733 -1.130549E-08 -0.03171568
vn 0.09483733 -1.130549E-08 -0.03171568
vn 0.09160262 -1.091988E-08 -0.04011187
vn 0.09160262 -1.091988E-08 -0.04011187
vn 0.09160262 -1.091988E-08 -0.04011187
vn 0.09160262 -1.091988E-08 -0.04011187
vn 0.09160262 -1.091988E-08 0.04011188
vn 0.09160262 -1.091988E-08 0.04011188
vn 0.09160262 -1.091988E-08 0.04011188
vn 0.09160262 -1.091988E-08 0.04011188
vn 0.09483733 -1.130549E-08 0.03171568
vn 0.09483733 -1.130549E-08 0.03171568
vn 0.09483733 -1.130549E-08 0.03171567
vn 0.09483733 -1.130549E-08 0.03171568
vn 0.1 -1.192093E-08 0
vn 0.1 -1.192093E-08 0
vn 0.1 -1.192093E-08 0
vn 0.1 -1.192093E-08 0
vn 0.09483733 -1.130549E-08 -0.03171568
vn 0.09483733 -1.130549E-08 -0.03171568
vn 0.09483733 -1.130549E-08 -0.03171568
vn 0.09483733 -1.130549E-08 -0.03171568
vn 0.09160262 -1.091988E-08 -0.04011187
vn 0.09160262 -1.091988E-08 -0.04011187
vn 0.09160262 -1.091988E-08 -0.04011187
vn 0.09160262 -1.091988E-08 -0.04011187

vt 0 0
vt -1.044011E-07 2.183344
vt 1 0
vt 0.9999999 2.183344
vt -1.044011E-07 2.174506
vt -3.331451E-07 4.283381
vt 0.9999999 2.174506
vt 0.9999998 4.283381
vt -3.331451E-07 4
vt -3.331451E-07 6
vt 0.9999998 4
vt 0.9999998 6
vt -3.331451E-07 5.200351
vt -1.044011E-07 7.309226
vt 0.9999998 5.200351
vt 0.9999999 7.309226
vt -1.044011E-07 6.976917
vt 0 9.16026
vt 0.9999999 6.976917
vt 1 9.16026
vt 1 0
vt 0.9999999 2.183344
vt 2 0
vt 2 2.183344
vt 0.9999999 2.174506
vt 0.9999998 4.283381
vt 2 2.174506
vt 2 4.283381
vt 0.9999998 4
vt 0.9999998 6
vt 2 4
vt 2 6
vt 0.9999998 5.200351
vt 0.9999999 7.309226
vt 2 5.200351
vt 2 7.309226
vt 0.9999999 6.976917
vt 1 9.16026
vt 2 6.976917
vt 2 9.16026
vt 2 0
vt 2 2.183344
vt 3 0
vt 3 2.183344
vt 2 2.174506
vt 2 4.283381
vt 3 2.174506
vt 3 4.283381
vt 2 4
vt 2 6
vt 3 4
vt 3 6
vt 2 5.200351
vt 2 7.309226
vt 3 5.200351
vt 3 7.309226
vt 2 6.976917
vt 2 9.16026
vt 3 6.976917
vt 3 9.16026
vt 3 0
vt 3 2.183344
vt 4 0
vt 4 2.183344
vt 3 2.174506
vt 3 4.283381
vt 4 2.174506
vt 4 4.283381
vt 3 4
vt 3 6
vt 4 4
vt 4 6
vt 3 5.200351
vt 3 7.309226
vt 4 5.200351
vt 4 7.309226
vt 3 6.976917
vt 3 9.16026
vt 4 6.976917
vt 4 9.16026
vt 4 0
vt 4 2.183344
vt 5 0
vt 5 2.183344
vt 4 2.174506
vt 4 4.283381
vt 5 2.174506
vt 5 4.283381
vt 4 4
vt 4 6
vt 5 4
vt 5 6
vt 4 5.200351
vt 4 7.309226
vt 5 5.200351
vt 5 7.309226
vt 4 6.976917
vt 4 9.16026
vt 5 6.976917
vt 5 9.16026

g Plane
usemtl Default_Prototype
f 3/3/3 4/4/4 2/2/2 1/1/1
f 7/7/7 8/8/8 6/6/6 5/5/5
f 11/11/11 12/12/12 10/10/10 9/9/9
f 15/15/15 16/16/16 14/14/14 13/13/13
f 19/19/19 20/20/20 18/18/18 17/17/17
f 23/23/23 24/24/24 22/22/22 21/21/21
f 27/27/27 28/28/28 26/26/26 25/25/25
f 31/31/31 32/32/32 30/30/30 29/29/29
f 35/35/35 36/36/36 34/34/34 33/33/33
f 39/39/39 40/40/40 38/38/38 37/37/37
f 43/43/43 44/44/44 42/42/42 41/41/41
f 47/47/47 48/48/48 46/46/46 45/45/45
f 51/51/51 52/52/52 50/50/50 49/49/49
f 55/55/55 56/56/56 54/54/54 53/53/53
f 59/59/59 60/60/60 58/58/58 57/57/57
f 63/63/63 64/64/64 62/62/62 61/61/61
f 67/67/67 68/68/68 66/66/66 65/65/65
f 71/71/71 72/72/72 70/70/70 69/69/69
f 75/75/75 76/76/76 74/74/74 73/73/73
f 79/79/79 80/80/80 78/78/78 77/77/77
f 83/83/83 84/84/84 82/82/82 81/81/81
f 87/87/87 88/88/88 86/86/86 85/85/85
f 91/91/91 92/92/92 90/90/90 89/89/89
f 95/95/95 96/96/96 94/94/94 93/93/93
f 99/99/99 100/100/100 98/98/98 97/97/97

